<svg width="24" height="24" viewBox="0 0 24 24" fill="none" xmlns="http://www.w3.org/2000/svg">
<circle cx="12" cy="12" r="12" fill="#EBEBEB"/>
<path d="M15.7724 18.6667C16.9295 18.6667 17.9988 18.2345 18.7834 17.45C19.6393 16.5941 20.0682 15.4221 19.9912 14.1498C19.9165 12.9156 19.3703 11.7308 18.4531 10.8137C17.6696 10.0301 16.7 9.5197 15.6492 9.33786C15.1224 9.24667 14.7534 8.87763 14.6622 8.35081C14.4802 7.29998 13.97 6.33039 13.1863 5.54688C12.2692 4.62976 11.0845 4.08348 9.85022 4.00884C8.57805 3.93175 7.40592 4.36076 6.55002 5.21667C5.69411 6.07257 5.26521 7.24459 5.34219 8.51687C5.41683 9.7511 5.96311 10.936 6.88023 11.853C7.66374 12.6366 8.63333 13.1469 9.68405 13.3288C10.211 13.42 10.5799 13.789 10.6712 14.3159C10.8532 15.3667 11.3634 16.3362 12.147 17.1198C13.0641 18.0369 14.2489 18.5832 15.4832 18.6578C15.5798 18.6636 15.6772 18.6667 15.7724 18.6667ZM9.56175 4.85927C9.63996 4.85927 9.71885 4.86173 9.79819 4.86654C10.8227 4.92853 11.8102 5.38597 12.5787 6.15448C13.2364 6.812 13.664 7.62214 13.8155 8.4974C13.9691 9.38441 14.6156 10.031 15.5026 10.1845C16.3779 10.336 17.188 10.7637 17.8455 11.4213C18.6141 12.1898 19.0715 13.1773 19.1335 14.2017C19.1955 15.2251 18.8553 16.163 18.1759 16.8425C17.5536 17.4648 16.7 17.8074 15.7724 17.8074C15.6943 17.8074 15.6145 17.8049 15.5351 17.8001C14.5105 17.7381 13.523 17.2808 12.7545 16.5122C12.097 15.8547 11.6693 15.0444 11.5178 14.1693C11.3642 13.2821 10.7178 12.6357 9.83064 12.4822C8.95548 12.3307 8.14534 11.903 7.48772 11.2454C6.71921 10.4769 6.26177 9.48937 6.19978 8.46495C6.1379 7.44153 6.47795 6.50372 7.15751 5.82416C7.78447 5.19731 8.63098 4.85927 9.56175 4.85927Z" fill="#333333"/>
<path d="M10.6573 8.87969C10.6713 8.87969 10.6856 8.87879 10.6997 8.87745C10.7135 8.87622 10.7275 8.87398 10.7413 8.87141C10.755 8.8685 10.7688 8.86514 10.7822 8.86078C10.7954 8.85675 10.8088 8.85216 10.8217 8.84679C10.8346 8.84131 10.8476 8.83538 10.8599 8.82866C10.8722 8.82217 10.8842 8.81501 10.8959 8.80718C10.9077 8.79946 10.9188 8.79118 10.9297 8.78234C10.9406 8.77338 10.9512 8.76376 10.9613 8.75403C11.0411 8.67413 11.0869 8.56324 11.0869 8.45011C11.0869 8.43612 11.0864 8.4218 11.0849 8.40804C11.0836 8.39394 11.0812 8.37995 11.0786 8.36619C11.0758 8.35242 11.0724 8.33866 11.0683 8.32523C11.0641 8.31203 11.0595 8.2986 11.054 8.28562C11.0485 8.27287 11.0426 8.26022 11.036 8.24791C11.0294 8.23527 11.0222 8.22329 11.0145 8.21155C11.0068 8.20002 10.9985 8.18861 10.9896 8.17775C10.9807 8.16679 10.971 8.15627 10.9613 8.1462C10.9512 8.13646 10.9406 8.12673 10.9297 8.11789C10.9188 8.10894 10.9077 8.10065 10.8959 8.09293C10.8842 8.08521 10.8722 8.07805 10.8599 8.07145C10.8476 8.06485 10.8346 8.0588 10.8217 8.05343C10.8088 8.04795 10.7954 8.04336 10.7822 8.03911C10.7688 8.03508 10.755 8.03161 10.7413 8.02882C10.7275 8.02624 10.7135 8.02389 10.6997 8.02244C10.6717 8.01986 10.643 8.01986 10.6153 8.02244C10.6012 8.02389 10.5872 8.02624 10.5734 8.02882C10.5597 8.03161 10.5459 8.03508 10.5328 8.03911C10.5193 8.04336 10.5058 8.04795 10.493 8.05343C10.4801 8.0588 10.4674 8.06485 10.4551 8.07145C10.4428 8.07805 10.4305 8.08521 10.4188 8.09293C10.4074 8.10065 10.3958 8.10894 10.385 8.11789C10.3741 8.12673 10.3635 8.13646 10.3534 8.1462C10.3437 8.15627 10.3343 8.16679 10.3251 8.17775C10.3165 8.18861 10.3079 8.20002 10.3002 8.21155C10.2924 8.22329 10.2853 8.23527 10.2787 8.24791C10.2721 8.26022 10.2661 8.27287 10.2607 8.28562C10.2552 8.2986 10.2506 8.31203 10.2467 8.32523C10.2423 8.33866 10.239 8.35242 10.2363 8.36619C10.2335 8.37995 10.2311 8.39394 10.23 8.40804C10.2285 8.42169 10.2278 8.43601 10.2278 8.45011C10.2278 8.56324 10.2735 8.67413 10.3534 8.75403C10.3635 8.76376 10.3741 8.7735 10.385 8.78234C10.3958 8.79118 10.4074 8.79957 10.4188 8.80718C10.4305 8.81501 10.4428 8.82217 10.4551 8.82866C10.4674 8.83526 10.4801 8.84131 10.493 8.84679C10.5058 8.85216 10.5193 8.85686 10.5328 8.86078C10.5459 8.86514 10.5597 8.8685 10.5734 8.87141C10.5872 8.87398 10.6012 8.87622 10.6153 8.87745C10.629 8.87879 10.6434 8.87969 10.6573 8.87969Z" fill="#333333"/>
<path d="M12.2081 8.61788C12.2222 8.61788 12.2365 8.61732 12.2505 8.61587C12.2645 8.61442 12.2786 8.6124 12.2924 8.6096C12.3058 8.60669 12.3196 8.60334 12.333 8.59931C12.3464 8.59528 12.3596 8.59036 12.3725 8.58499C12.3855 8.57984 12.3983 8.57357 12.4107 8.56719C12.423 8.56059 12.4353 8.55321 12.4467 8.54549C12.4584 8.53765 12.47 8.52937 12.4808 8.52053C12.4917 8.51158 12.5023 8.50196 12.512 8.49211C12.522 8.48215 12.5315 8.47152 12.5403 8.46067C12.5493 8.44981 12.5576 8.43862 12.5655 8.42687C12.5734 8.41513 12.5805 8.40304 12.587 8.39073C12.5936 8.37842 12.5997 8.36555 12.6051 8.35269C12.6103 8.33982 12.6151 8.32628 12.6191 8.31307C12.6231 8.29965 12.6266 8.286 12.6294 8.27212C12.6323 8.25847 12.6343 8.24437 12.6358 8.23061C12.6371 8.21662 12.6377 8.2023 12.6377 8.18831C12.6377 8.17421 12.6371 8.16022 12.6358 8.14612C12.6343 8.13214 12.6323 8.11815 12.6294 8.10439C12.6266 8.09062 12.6231 8.07686 12.6191 8.06365C12.6151 8.05023 12.6103 8.03702 12.6051 8.02415C12.5997 8.01095 12.5936 7.99842 12.587 7.986C12.5805 7.97369 12.5734 7.96149 12.5655 7.94997C12.5576 7.93822 12.5493 7.9268 12.5403 7.91595C12.5315 7.90498 12.522 7.89447 12.512 7.88462C12.5023 7.87466 12.4917 7.86515 12.4808 7.85597C12.47 7.84747 12.4584 7.83885 12.4467 7.83113C12.4353 7.82341 12.423 7.81625 12.4107 7.80965C12.3983 7.80304 12.3855 7.797 12.3725 7.79152C12.3596 7.78615 12.3464 7.78156 12.333 7.7772C12.3196 7.77328 12.3058 7.76981 12.2924 7.76701C12.2786 7.76444 12.2645 7.76209 12.2505 7.76097C12.2224 7.75806 12.1941 7.75806 12.166 7.76097C12.1519 7.76209 12.138 7.76444 12.1242 7.76701C12.1108 7.76981 12.097 7.77328 12.0836 7.7772C12.07 7.78156 12.0569 7.78615 12.044 7.79152C12.0311 7.797 12.0182 7.80304 12.0059 7.80965C11.9936 7.81625 11.9813 7.82341 11.9699 7.83113C11.9581 7.83885 11.9466 7.84747 11.9358 7.85597C11.9249 7.86515 11.9143 7.87466 11.9045 7.88462C11.8945 7.89447 11.8851 7.90498 11.8762 7.91595C11.8673 7.9268 11.8587 7.93822 11.8509 7.94997C11.8432 7.96138 11.8361 7.97369 11.8295 7.986C11.823 7.99842 11.8169 8.01095 11.8114 8.02415C11.8063 8.03702 11.8015 8.05023 11.7975 8.06365C11.7931 8.07686 11.7897 8.09062 11.7872 8.10439C11.7843 8.11804 11.7822 8.13214 11.7808 8.14612C11.7793 8.16022 11.7785 8.17421 11.7785 8.18831C11.7785 8.2023 11.7793 8.21662 11.7808 8.23061C11.7822 8.24437 11.7843 8.25847 11.7872 8.27212C11.7897 8.28588 11.7931 8.29965 11.7975 8.31307C11.8015 8.32628 11.8063 8.33982 11.8114 8.35269C11.8169 8.36555 11.823 8.37842 11.8295 8.39073C11.8361 8.40304 11.8432 8.41513 11.8509 8.42687C11.8587 8.43862 11.8673 8.44981 11.8762 8.46067C11.8851 8.47152 11.8945 8.48215 11.9045 8.49211C11.9143 8.50196 11.9249 8.51169 11.9358 8.52053C11.9466 8.52937 11.9581 8.53777 11.9699 8.54549C11.9813 8.55321 11.9936 8.56059 12.0059 8.56719C12.0182 8.57357 12.0311 8.57984 12.044 8.58499C12.0569 8.59036 12.07 8.59528 12.0836 8.59931C12.097 8.60334 12.1108 8.60669 12.1242 8.6096C12.138 8.6124 12.1519 8.61442 12.166 8.61587C12.18 8.61732 12.1941 8.61788 12.2081 8.61788Z" fill="#333333"/>
<path d="M11.0381 7.29489C11.0522 7.29489 11.0665 7.29411 11.0805 7.29254C11.0943 7.29143 11.1082 7.28919 11.122 7.28661C11.1358 7.2837 11.1495 7.28024 11.163 7.27598C11.1762 7.27195 11.1896 7.26737 11.2025 7.262C11.2154 7.25651 11.2283 7.25047 11.2406 7.24398C11.2529 7.23738 11.2649 7.23022 11.2767 7.2225C11.2884 7.21466 11.2999 7.20616 11.3104 7.19721C11.3216 7.18837 11.3319 7.17886 11.342 7.1689C11.3521 7.15916 11.3615 7.14853 11.3703 7.13768C11.3793 7.12671 11.3875 7.1153 11.3953 7.10355C11.403 7.09214 11.4105 7.07983 11.4171 7.06752C11.4236 7.05521 11.4296 7.04256 11.4348 7.0297C11.4402 7.01649 11.4451 7.0034 11.4491 6.98986C11.4531 6.97677 11.4566 6.96301 11.4594 6.94924C11.4623 6.93548 11.4643 6.92138 11.4658 6.90739C11.4672 6.8934 11.4678 6.87931 11.4678 6.86532C11.4678 6.85122 11.4672 6.8369 11.4658 6.82291C11.4643 6.80915 11.4623 6.79505 11.4594 6.78139C11.4566 6.76763 11.4531 6.75387 11.4491 6.74044C11.4451 6.72724 11.4402 6.71381 11.4348 6.70094C11.4296 6.68796 11.4236 6.67509 11.4171 6.66278C11.4105 6.65047 11.403 6.63839 11.3953 6.62664C11.3875 6.615 11.3793 6.60348 11.3703 6.59285C11.3615 6.58199 11.3521 6.57136 11.342 6.5614C11.3319 6.55133 11.3216 6.54193 11.3104 6.53298C11.2999 6.52414 11.2884 6.51586 11.2767 6.50814C11.2649 6.50042 11.2529 6.49292 11.2406 6.48632C11.2283 6.47972 11.2154 6.47379 11.2025 6.46864C11.1896 6.46316 11.1762 6.45823 11.163 6.45432C11.1495 6.45029 11.1358 6.44682 11.122 6.44391C11.1082 6.44134 11.0943 6.4391 11.0805 6.43764C11.0524 6.43485 11.0241 6.43485 10.996 6.43764C10.982 6.4391 10.9679 6.44134 10.9542 6.44391C10.9404 6.44682 10.9267 6.45029 10.9135 6.45432C10.9001 6.45823 10.8869 6.46316 10.874 6.46864C10.8611 6.47379 10.8482 6.47972 10.8359 6.48632C10.8236 6.49292 10.8113 6.50042 10.7999 6.50814C10.7881 6.51586 10.7766 6.52414 10.7657 6.53298C10.7549 6.54193 10.7442 6.55133 10.7345 6.5614C10.7245 6.57136 10.715 6.58199 10.7062 6.59285C10.6972 6.60348 10.6887 6.615 10.6809 6.62664C10.6732 6.63839 10.666 6.65047 10.6595 6.66278C10.6529 6.67509 10.6469 6.68796 10.6414 6.70094C10.6363 6.71381 10.6314 6.72724 10.6274 6.74044C10.6231 6.75387 10.6197 6.76763 10.6171 6.78139C10.6142 6.79505 10.6122 6.80915 10.6107 6.82291C10.6094 6.8369 10.6085 6.85122 10.6085 6.86532C10.6085 6.97845 10.6543 7.089 10.7345 7.1689C10.7442 7.17897 10.7549 7.18837 10.7657 7.19721C10.7766 7.20616 10.7881 7.21466 10.7999 7.2225C10.8113 7.23022 10.8236 7.23738 10.8359 7.24398C10.8482 7.25047 10.8611 7.25651 10.874 7.262C10.8869 7.26737 10.9001 7.27195 10.9135 7.27598C10.9267 7.28024 10.9404 7.2837 10.9542 7.28661C10.9679 7.28919 10.982 7.29143 10.996 7.29254C11.01 7.29411 11.0241 7.29489 11.0381 7.29489Z" fill="#333333"/>
</svg>
