<svg width="24" height="24" viewBox="0 0 24 24" fill="none" xmlns="http://www.w3.org/2000/svg">
<circle cx="12" cy="12" r="12" fill="#EBEBEB"/>
<path d="M20.396 2.82715L14.3406 8.88249C14.2226 8.35942 13.9736 7.79552 13.5957 7.198C13.3236 6.76768 12.8573 6.51076 12.3483 6.5108C12.178 6.5108 12.0127 6.54018 11.8575 6.59465C11.7683 6.00537 11.5041 5.36024 11.0678 4.67012C10.7957 4.23981 10.3294 3.98288 9.82044 3.98288C9.31144 3.98288 8.84518 4.23981 8.57301 4.67012C8.37348 4.98578 8.21022 5.29192 8.08279 5.58774C7.96219 5.39732 7.82514 5.21981 7.66907 5.06369C7.17258 4.56717 6.41453 4.20134 5.41598 3.97632C4.9193 3.86443 4.4079 4.01249 4.04798 4.37237C3.6881 4.73228 3.53997 5.24361 3.65194 5.74036C3.87692 6.73888 4.24278 7.49692 4.73927 7.99341C4.8952 8.14935 5.0725 8.28625 5.2627 8.40674C4.96743 8.53405 4.66194 8.69699 4.34691 8.89612C3.91659 9.16817 3.6597 9.63448 3.6597 10.1435C3.6597 10.6525 3.91662 11.1188 4.34694 11.3909C5.0371 11.8272 5.68223 12.0914 6.27147 12.1807C6.21704 12.3358 6.18765 12.5011 6.18765 12.6715C6.18765 13.1805 6.44457 13.6468 6.87489 13.9189C7.47245 14.2967 8.03631 14.5457 8.55938 14.6637L2.82729 20.3958C2.61291 20.6102 2.61291 20.9578 2.82729 21.1722C3.04166 21.3866 3.38929 21.3866 3.6037 21.1722L8.88933 15.8866C9.00756 16.1153 9.1854 16.3127 9.41192 16.4559C10.2771 17.0029 11.0718 17.2802 11.7739 17.2802C12.9746 17.2802 14.2249 16.4402 14.8507 15.9515L18.9612 20.0619C19.1755 20.2763 19.5232 20.2763 19.7376 20.0619C19.8448 19.9547 19.8984 19.8142 19.8984 19.6737C19.8984 19.5332 19.8448 19.3927 19.7376 19.2855L15.6273 15.1752C16.1158 14.5499 16.9571 13.2987 16.9571 12.0971C16.9571 11.3949 16.6797 10.6002 16.1328 9.73503C15.9896 9.50855 15.7922 9.3307 15.5635 9.21247L21.1724 3.60361C21.2796 3.49638 21.3332 3.35584 21.3332 3.21533C21.3332 3.07482 21.2796 2.93431 21.1724 2.82712C20.958 2.61274 20.6103 2.61274 20.396 2.82715ZM5.51573 7.217C5.17331 6.87458 4.89921 6.28049 4.72316 5.499C4.71623 5.46834 4.71324 5.43939 4.71324 5.4122C4.71324 5.27683 4.78765 5.18564 4.82447 5.14878C4.86874 5.10456 4.99138 5.0062 5.17466 5.04747C5.95618 5.22356 6.55023 5.49762 6.89265 5.84004C7.42151 6.3689 7.68 7.38682 7.78927 8.11358C7.06236 8.00428 6.04459 7.74582 5.51573 7.217ZM8.84678 7.03212C8.84678 6.54788 9.07308 5.93399 9.50113 5.25688C9.60161 5.09804 9.75795 5.08086 9.82047 5.08086C9.883 5.08086 10.0393 5.09803 10.1397 5.25685C10.5678 5.93399 10.7941 6.54784 10.7941 7.03212C10.7941 7.78006 10.2571 8.68262 9.82044 9.27376C9.3837 8.68244 8.84678 7.77995 8.84678 7.03212ZM4.93381 10.4628C4.77496 10.3624 4.75779 10.206 4.75779 10.1435C4.75779 10.0811 4.77496 9.92472 4.93378 9.82428C5.61095 9.39618 6.22477 9.16989 6.70904 9.16989C7.45699 9.16989 8.35955 9.70688 8.95069 10.1435C8.35937 10.5803 7.45688 11.1172 6.70904 11.1172C6.22477 11.1172 5.61092 10.8909 4.93381 10.4628ZM7.46176 12.9908C7.30291 12.8903 7.28574 12.734 7.28574 12.6715C7.28574 12.609 7.30291 12.4527 7.46173 12.3522C8.13887 11.9241 8.75268 11.6978 9.23699 11.6978C9.77742 11.6978 10.3985 11.9782 10.9246 12.2985L9.61955 13.6035C9.48925 13.6301 9.36095 13.6451 9.23699 13.6451C8.75272 13.6451 8.13883 13.4189 7.46176 12.9908ZM14.0157 15.2084C13.4243 15.6452 12.5219 16.1821 11.774 16.1821C11.2897 16.1821 10.6759 15.9558 9.99879 15.5277C9.83994 15.4273 9.82277 15.2709 9.82277 15.2084C9.82277 15.1459 9.83994 14.9896 9.99875 14.8892C10.6759 14.4611 11.2897 14.2348 11.774 14.2348C12.522 14.2348 13.4245 14.7718 14.0157 15.2084ZM15.2046 10.3218C15.6327 10.9989 15.859 11.6128 15.859 12.0971C15.859 12.845 15.322 13.7476 14.8854 14.3387C14.4486 13.7474 13.9117 12.8449 13.9117 12.0971C13.9117 11.6128 14.138 10.9989 14.5661 10.3218C14.6665 10.163 14.8229 10.1458 14.8853 10.1458C14.9479 10.1458 15.1042 10.163 15.2046 10.3218ZM13.3221 9.56003C13.3221 9.68399 13.3071 9.81225 13.2805 9.94262L11.9755 11.2476C11.6551 10.7216 11.3748 10.1005 11.3748 9.56006C11.3748 9.07579 11.6011 8.4619 12.0292 7.7848C12.1296 7.62599 12.2859 7.60881 12.3484 7.60881C12.4109 7.60881 12.5672 7.62599 12.6677 7.7848C13.0957 8.4619 13.3221 9.07575 13.3221 9.56003Z" fill="#333333"/>
</svg>
